<svg width="26" height="27" viewBox="0 0 26 27" fill="none" xmlns="http://www.w3.org/2000/svg">
<g clip-path="url(#clip0_2883_4)">
<path d="M25.0488 0.566895H0.951234C0.425902 0.566895 0 0.991377 0 1.51495V25.5322C0 26.0557 0.425902 26.4802 0.951234 26.4802H16.5701C16.5699 26.4802 16.5703 26.4802 16.5701 26.4802C16.8117 26.4802 17.0619 26.3837 17.2435 26.2025L25.7214 17.7529C25.8947 17.5803 26 17.3374 26 17.0825V1.51495C26 0.991377 25.5741 0.566895 25.0488 0.566895ZM17.5222 23.2433V18.0306H22.7523C21.2389 19.539 19.0356 21.7349 17.5222 23.2433ZM24.0976 16.1344H16.5709C16.0456 16.1344 15.6197 16.5589 15.6197 17.0825V24.5841H1.90242V2.46297H24.0975L24.0976 16.1344Z" fill="#146EF5"/>
<path d="M5.9942 8.51478H20.0072C20.5325 8.51478 20.9584 8.0903 20.9584 7.56671C20.9584 7.04313 20.5325 6.61865 20.0072 6.61865H5.9942C5.46887 6.61865 5.04297 7.04313 5.04297 7.56671C5.04297 8.0903 5.46887 8.51478 5.9942 8.51478Z" fill="#146EF5"/>
<path d="M5.9942 13.5528H20.0072C20.5325 13.5528 20.9584 13.1284 20.9584 12.6048C20.9584 12.0812 20.5325 11.6567 20.0072 11.6567H5.9942C5.46887 11.6567 5.04297 12.0812 5.04297 12.6048C5.04297 13.1284 5.46887 13.5528 5.9942 13.5528Z" fill="#146EF5"/>
</g>
<defs>
<clipPath id="clip0_2883_4">
<rect width="26" height="26" fill="white" transform="translate(0 0.5)"/>
</clipPath>
</defs>
</svg>
