<svg width="30" height="28" viewBox="0 0 30 28" fill="none" xmlns="http://www.w3.org/2000/svg">
<path d="M9.00294 6.34306V3.86062C9.00294 3.07425 9.64156 2.43441 10.4292 2.43441H18.6408C19.4272 2.43441 20.067 3.07425 20.067 3.86062V6.34306H9.00294ZM24.5789 6.34306H22.0049V3.86062C22.0049 2.00582 20.4956 0.496582 18.6408 0.496582H10.4292C8.57435 0.496582 7.06511 2.00582 7.06511 3.86062V6.34306H3.46295C2.61309 6.34306 1.84259 6.81073 1.45063 7.5629C1.05867 8.3163 1.11728 9.21623 1.60448 9.91104L5.00272 14.7696C5.42643 15.3765 6.12122 15.7391 6.86241 15.7391H22.0464C22.9341 15.7391 23.7449 15.2165 24.1137 14.407L25.8952 10.4763C26.115 9.98914 25.9001 9.41405 25.4129 9.19303C24.9232 8.97202 24.3506 9.18815 24.1295 9.67534L22.348 13.6059C22.2943 13.7244 22.1758 13.8001 22.0464 13.8001H6.86241C6.75495 13.8001 6.65238 13.7488 6.59133 13.6597L3.19187 8.79985C3.09175 8.65698 3.13448 8.52511 3.16867 8.45917C3.20409 8.39201 3.28956 8.28089 3.46295 8.28089H24.5789C26.0112 8.28089 27.1322 9.36154 27.1322 10.7437V23.2597C27.1322 24.6175 26.0259 25.7238 24.6693 25.7238H4.40073C3.0429 25.7238 1.93784 24.6175 1.93784 23.2597V13.1261C1.93784 12.59 1.50436 12.1565 0.968308 12.1565C0.432259 12.1565 0 12.59 0 13.1261V23.2597C0 25.6872 1.97325 27.6617 4.40073 27.6617H24.6693C27.0955 27.6617 29.07 25.6872 29.07 23.2597V10.7437C29.07 8.27601 27.0967 6.34306 24.5789 6.34306Z" fill="#146EF5"/>
</svg>
